<?xml version="1.0" encoding="UTF-8"?><svg xmlns="http://www.w3.org/2000/svg" xmlns:xlink="http://www.w3.org/1999/xlink" height="78.2" preserveAspectRatio="xMidYMid meet" version="1.0" viewBox="0.0 0.0 80.0 78.2" width="80.0" zoomAndPan="magnify"><g id="change1_1"><path d="M59.8,14C56.9,5.9,49.1,0,40,0S23.1,5.8,20.2,14C9,14.4,0,23.6,0,34.9c0,6.7,3.2,12.7,8.1,16.5 c-0.5,1.8-0.8,3.8-0.8,5.8c0,11.6,9.4,21,21,21c4.4,0,8.5-1.4,11.8-3.7c3.3,2.2,7.3,3.5,11.6,3.5c11.6,0,21-9.4,21-21 c0-2-0.3-3.9-0.8-5.7c5-3.7,8.1-9.7,8.1-16.4l0,0C80,23.6,71,14.4,59.8,14z M56.8,21c0,8.4-6.2,15.3-14.3,16.5 c-0.1-0.8-0.2-1.7-0.2-2.6c0-8.4,6.2-15.3,14.3-16.5C56.7,19.2,56.8,20.1,56.8,21z M51.8,40.4c6.6,0,12.3,3.8,15,9.4 c-2.3,1.2-5,1.9-7.7,1.9c-6.6,0-12.3-3.8-15-9.4C46.4,41.1,49,40.4,51.8,40.4z M40.1,4.2c6.9,0,12.8,4.1,15.3,10.1 c-6.8,1.2-12.5,5.7-15.3,11.8c-2.8-6.1-8.5-10.6-15.3-11.8C27.3,8.4,33.2,4.2,40.1,4.2z M23.6,18.4c8.1,1.2,14.3,8.1,14.3,16.5 c0,0.9-0.1,1.7-0.2,2.6c-8.1-1.2-14.3-8.1-14.3-16.5C23.4,20.1,23.4,19.2,23.6,18.4z M36.1,42.4c-2.8,5.5-8.4,9.3-14.9,9.3 c-2.8,0-5.4-0.7-7.7-1.9c2.8-5.5,8.4-9.3,15-9.3C31.1,40.5,33.8,41.2,36.1,42.4L36.1,42.4z M4.4,34.9L4.4,34.9 c0-8.6,6.6-15.7,14.9-16.6c-0.1,0.9-0.2,1.8-0.2,2.7c0,6.1,2.6,11.6,6.8,15.5c-7,0.8-12.9,5-16.1,10.9C6.5,44.3,4.4,39.9,4.4,34.9z M28.3,74.1c-9.2-0.1-16.7-7.6-16.7-16.8h0c0-1.2,0.1-2.3,0.4-3.5c2.8,1.3,5.8,2.1,9.1,2.1c3.7,0,7.1-0.9,10.1-2.6 c-0.2,1.2-0.4,2.5-0.4,3.9c0,5.7,2.3,10.8,5.9,14.6C34.2,73.3,31.3,74.1,28.3,74.1z M35.1,57.1c0-4.6,1.9-8.8,4.9-11.9 c3.1,3,5.1,7.3,5.1,12s-1.9,8.9-4.9,11.9C37.1,66.1,35.1,61.8,35.1,57.1z M51.9,73.8c-3,0-5.8-0.8-8.3-2.2c3.6-3.8,5.8-8.8,5.8-14.4 c0-1.4-0.1-2.7-0.4-4c3,1.7,6.5,2.6,10.2,2.6c3.3,0,6.4-0.8,9.1-2.1c0.1,1.2,0.3,2.3,0.3,3.4h0C68.6,66.3,61.1,73.8,51.9,73.8z M70.2,47.2c-3-5.8-8.9-10-15.9-10.9l0,0v0h0C58.4,32.5,61,27,61,20.9c0-0.9-0.1-1.8-0.2-2.7c8.4,0.9,14.9,8,14.9,16.6 C75.7,39.7,73.6,44.1,70.2,47.2z" fill="#19486A"/></g></svg>