<?xml version="1.0" encoding="UTF-8"?><svg xmlns="http://www.w3.org/2000/svg" xmlns:xlink="http://www.w3.org/1999/xlink" height="81.9" preserveAspectRatio="xMidYMid meet" version="1.0" viewBox="0.0 0.0 77.4 81.9" width="77.4" zoomAndPan="magnify"><g fill="#A21942" id="change1_1"><path d="M69.7,19.4L53.3,35c-0.6,0.6-0.9,1.1-0.9,2.3v43.6c0,0.5,0.4,0.9,0.9,0.9h16.9c0.5,0,0.9-0.4,0.9-0.9V19.8 C71.2,19.2,70.8,18.3,69.7,19.4 M22.6,39.6L6.2,55.2c-0.6,0.6-0.9,1.1-0.9,2.3v23.3c0,0.5,0.4,0.9,0.9,0.9h16.9 c0.5,0,0.9-0.4,0.9-0.9V40C24.1,39.5,23.7,38.6,22.6,39.6" fill="inherit"/><path d="M77.2,0.5c0-0.1,0-0.3-0.1-0.4S76.9,0,76.8,0h-0.2L64.1,2.8h-0.2c-0.1,0-0.2,0.1-0.2,0.1 c-0.2,0.2-0.2,0.5,0,0.7l0.1,0.1l2.9,2.9L38.3,35L25.2,21.9c-0.1-0.1-0.4-0.1-0.5,0l-3.6,3.6l-21,21C0,46.6,0,46.9,0.1,47l3.6,3.6 c0.1,0.1,0.4,0.1,0.5,0L25,29.9l9.5,9.5l3.6,3.6c0.1,0.1,0.4,0.1,0.5,0l32.2-32.2l3,3c0.2,0.2,0.5,0.2,0.7,0 c0.1-0.1,0.1-0.2,0.1-0.3l2.8-12.8L77.2,0.5L77.2,0.5z" fill="inherit"/><path d="M46.3,42.4l-7.9,8c-0.2,0.1-0.4,0.1-0.5,0l-7.2-7.3c-1.3-1.3-1.6-0.2-1.6,0.3V81c0,0.5,0.4,0.9,0.9,0.9 h16.9c0.5,0,0.9-0.4,0.9-0.9V42.8C47.8,42.1,47.4,41.2,46.3,42.4" fill="inherit"/></g></svg>